<svg height="600pt" viewBox="0 0 600 600" width="600pt" xmlns="http://www.w3.org/2000/svg"><path d="m0 600h20c.019531-6.699219.582031-13.390625 1.679688-20h216.640624c1.097657 6.609375 1.660157 13.300781 1.679688 20h20c.03125-52.96875-28.988281-101.6875-75.582031-126.890625l-33.417969-18.109375 27.664062-15-9.523437-17.578125-39.140625 21.207031-39.140625-21.199218c-11.101563-6.027344-21.3125-13.578126-30.328125-22.429688h59.46875v-20h-76.277344c-8.390625-12.21875-14.714844-25.734375-18.722656-40h40.53125v-20h-44.472656c-1.707032-13.3125-1.347656-26.800781 1.070312-40h147.871094v-20h-142.777344c4.945313-14.453125 12.289063-27.976562 21.71875-40h162.175782c3.777343 4.765625 7.222656 9.773438 10.324218 15l17.25-10.097656c-13.492187-22.996094-32.671875-42.144532-55.691406-55.589844l-33.152344-19.3125 38.550782-22.492188c44.261718-25.9375 71.5-73.359374 71.601562-124.65625v-2.851562h-20v2.851562c-.019531 5.738282-.433594 11.46875-1.25 17.148438h-217.5c-.816406-5.679688-1.230469-11.410156-1.25-17.148438v-2.851562h-20v2.851562c.101562 51.296876 27.339844 98.71875 71.601562 124.65625l38.550782 22.492188-33.101563 19.3125c-48.464843 28.273438-77.910156 80.492188-77.019531 136.59375.890625 56.105469 31.972656 107.367188 81.308594 134.09375l27.660156 15-33.417969 18.109375c-46.59375 25.203125-75.6093748 73.921875-75.582031 126.890625zm26-560h208c-4.546875 14.507812-11.703125 28.0625-21.117188 40h-165.800781c-9.40625-11.9375-16.550781-25.492188-21.082031-40zm55.710938 70.230469c-5.175782-3.042969-10.117188-6.460938-14.792969-10.230469h126.164062c-4.660156 3.769531-9.589843 7.1875-14.75 10.230469l-48.332031 28.1875zm5.457031 76.363281 42.832031-25.011719 42.871094 25c6.582031 3.929688 12.816406 8.421875 18.636718 13.417969h-123.265624c5.898437-5.003906 12.21875-9.492188 18.886718-13.40625zm146.203125 373.40625h-206.738282c4.980469-14.625 12.644532-28.1875 22.597657-40h161.542969c9.949218 11.8125 17.617187 25.375 22.597656 40zm-103.371094-93.628906 44.902344 24.316406c5.082031 2.765625 9.972656 5.875 14.628906 9.3125h-119.0625c4.660156-3.4375 9.546875-6.546875 14.628906-9.3125zm0 0"/><path d="m490 100v20h67.882812c1.386719 7.742188 2.09375 15.589844 2.117188 23.460938-.023438 5.523437-.339844 11.046874-.953125 16.539062h-119.046875v20h115.371094c-1.382813 5.488281-3.160156 10.875-5.3125 16.109375-3.550782 8.367187-7.910156 16.367187-13.007813 23.890625h-57.050781v20h40.570312c-8.871093 8.882812-18.972656 16.4375-30 22.429688l9.550782 17.570312c49.914062-27.148438 80.671875-79.726562 79.878906-136.539062-.003906-27.597657-7.359375-54.695313-21.308594-78.507813l-17.25 10.09375c4.625 7.917969 8.433594 16.277344 11.367188 24.953125zm0 0"/><path d="m529.761719 330c-18.316407.03125-35.894531 7.207031-49 20h-71.503907l-13.148437-171c-4.066406-50.117188-45.824219-88.785156-96.109375-89-3.046875 0-5.933594 1.386719-7.832031 3.773438-1.898438 2.382812-2.601563 5.503906-1.917969 8.476562l56.410156 244.410156-244.410156-56.410156c-2.972656-.683594-6.09375.019531-8.476562 1.917969-2.386719 1.898437-3.773438 4.785156-3.773438 7.832031.214844 50.28125 38.882812 92.039062 89 96.109375l171 13.148437v71.839844c-22.59375 23.160156-26.351562 58.789063-9.097656 86.152344 17.261718 27.363281 51.03125 39.320312 81.667968 28.914062 30.628907-10.414062 50.121094-40.46875 47.132813-72.683593-2.988281-32.214844-27.679687-58.171875-59.703125-62.773438v-.46875c.035156-27.597656 22.398438-49.964843 50-50h.230469c5.335937 37.109375 38.882812 63.488281 76.199219 59.921875 37.324218-3.5625 65.269531-35.808594 63.488281-73.261718-1.78125-37.445313-32.667969-66.894532-70.15625-66.898438zm-142.691407 42.929688 20 20-14.140624 14.140624-20-20zm12.929688 167.070312c-5.523438 0-10-4.476562-10-10s4.476562-10 10-10 10 4.476562 10 10-4.476562 10-10 10zm130-130c-5.523438 0-10-4.476562-10-10s4.476562-10 10-10 10 4.476562 10 10-4.476562 10-10 10zm0 0"/></svg>