<?xml version="1.0" encoding="utf-8"?>
<!-- Svg Vector Icons : http://www.onlinewebfonts.com/icon -->
<!DOCTYPE svg PUBLIC "-//W3C//DTD SVG 1.1//EN" "http://www.w3.org/Graphics/SVG/1.1/DTD/svg11.dtd">
<svg version="1.1" xmlns="http://www.w3.org/2000/svg" xmlns:xlink="http://www.w3.org/1999/xlink" x="0px" y="0px" viewBox="0 0 1000 1000" enable-background="new 0 0 1000 1000" xml:space="preserve">
<metadata> Svg Vector Icons : http://www.onlinewebfonts.com/icon </metadata>
<g><g transform="translate(0.000000,512.000000) scale(0.100000,-0.100000)"><path d="M6975.3,4891.7c-300.5-388.5-419.1-943.6-335-1563.8l11.5-82.3l195.2-53.6c105.3-28.7,321.6-95.7,480.4-145.5c157-49.8,287.1-90,289-88.1c2,1.9-26.8,120.6-63.1,262.2c-61.3,231.6-68.9,285.2-70.8,516.8c-1.9,298.6,21.1,392.4,141.7,558.9l74.7,105.3l-312,310.1l-312,310.1L6975.3,4891.7z"/><path d="M5606.8,3132.7c-478.5-103.4-895.8-398.1-1089.1-771.4c-157-302.4-212.5-568.5-214.4-1016.4c0-183.8,5.7-356,13.4-384.7c11.5-38.3,34.4-53.6,114.8-74.6c55.5-13.4,269.9-78.5,474.7-145.5c204.8-67,375.2-116.8,379-114.8c3.8,3.8-13.4,78.5-34.5,166.5c-53.6,206.7-93.8,419.2-80.4,419.2c11.5,0,1129.3-832.6,1161.8-867.1c30.6-28.7-371.3-1.9-618.2,44c-283.3,51.7-656.5,147.4-999.2,258.4c-495.7,160.8-599.1,183.8-882.4,195.2C2749.1,887.5,2037,276.9,1949-772c-13.4-160.8,19.1-564.6,49.8-622.1c9.6-19.1,61.2-42.1,116.8-55.5c78.5-19.1,553.2-155,842.2-241.2c28.7-7.6,28.7-1.9,3.8,91.9c-78.5,296.7-151.2,840.3-111,838.4c21.1-1.9,951.3-1244.1,939.8-1255.6c-17.2-17.2-480.4,86.1-826.9,183.8c-423,118.7-872.8,229.7-1215.4,298.6c-346.4,70.8-685.2,74.7-905.3,11.5c-231.6-67-472.8-199.1-669.9-371.3l-72.7-63.1l313.9-312l313.9-313.9l72.7,49.8c139.7,95.7,317.7,135.9,583.8,134c348.4-1.9,599.1-55.5,1322.6-283.3c648.9-204.8,909.2-250.7,1353.2-235.4c225.9,5.8,336.9,19.1,451.7,49.8c497.7,137.8,857.5,444,1045.1,893.8c109.1,264.1,141.7,451.7,141.7,849.9c1.9,195.2-3.8,375.1-11.5,402c-11.5,42.1-36.4,55.5-181.8,93.8c-91.9,26.8-308.2,91.9-478.5,145.5c-172.3,55.5-312,93.8-312,86.1c0-9.6,21.1-95.7,45.9-195.3c55.5-208.6,93.8-417.2,80.4-430.7c-5.7-5.7-292.9,212.5-641.2,484.3c-419.2,329.2-624,499.6-608.7,511c34.5,23,321.6-3.8,528.3-47.9c99.5-21,354.1-93.8,564.6-160.8c1117.8-359.8,1604-434.5,2103.6-321.6c516.8,118.7,934,474.7,1133.1,974.3c99.6,250.7,130.2,457.5,118.7,813.5c-15.3,432.6-7.7,411.5-174.2,459.4c-74.6,23-283.3,88-465.1,143.6c-179.9,57.4-335,105.3-346.4,105.3c-9.6,0,3.8-70.8,28.7-157c68.9-237.3,103.3-472.8,97.6-650.8l-5.8-158.9l-107.2,134c-57.4,74.6-294.8,373.2-522.6,668l-417.2,534l109.1-15.3c189.5-23,478.5-101.4,914.9-246.9c468.9-157,702.4-223.9,957-269.9c398.1-72.7,796.2-68.9,1060.4,11.5c170.3,51.7,421.1,183.8,593.4,310.1l137.8,101.5l-310.1,310.1l-310.1,308.2l-86.1-65.1c-145.5-111-298.6-153.1-555.1-151.2c-292.8,1.9-476.6,45.9-1138.9,266.1c-468.9,155-581.9,185.7-890,237.3C6204,3171,5840.3,3182.5,5606.8,3132.7z M6533.2,1551.7c321.6-411.5,585.7-761.8,589.6-779c5.7-32.5-99.6-212.5-124.4-212.5c-32.6,0-1560,1546.6-1548.5,1567.6c24.9,38.3,174.2,114.8,279.4,143.6C5945.6,2328.8,5880.5,2388.2,6533.2,1551.7z M6106.3,1226.3c424.9-424.9,771.3-777.1,771.3-784.8c0-19.1-202.9-91.9-256.5-91.9c-26.8,0-306.3,195.2-740.7,518.7c-382.8,285.2-706.3,528.3-719.7,541.7c-30.6,28.7,3.8,298.6,53.6,413.4c45.9,103.4,90,172.3,109.1,172.3C5331.2,1995.8,5683.3,1649.3,6106.3,1226.3z M4102.3-647.5c821.1-641.2,773.3-589.5,727.3-802c-23-103.4-99.5-275.6-130.2-294.8c-7.7-5.8-367.5,342.6-796.3,771.4c-777.1,777.1-782.9,782.8-736.9,811.6c72.7,45.9,158.9,88.1,179.9,90C3357.7-71.4,3696.5-329.8,4102.3-647.5z M4555.9-1887.9c-55.5-67-342.6-153.1-514.9-155c-23,0-225.9,254.6-581.9,733.1c-302.4,402-555.1,740.8-564.6,750.3c-17.2,23,44,172.3,93.8,225.8c28.7,32.6,70.8-5.7,811.6-746.5C4448.8-1727.1,4575.1-1863,4555.9-1887.9z"/><path d="M2408.4-2894.6c151.2-545.5,135.9-934.1-45.9-1186.7l-57.4-78.5l312-312l310.1-310.1l82.3,111c254.6,342.6,402,861.3,379,1324.6c-17.2,325.4-17.2,325.4-176.1,369.4c-74.6,19.1-290.9,82.3-482.3,139.7S2377.7-2732,2372-2732C2368.2-2732,2383.5-2804.7,2408.4-2894.6z"/></g></g>
</svg>